<?xml version="1.0" standalone="no"?>
<!DOCTYPE svg PUBLIC "-//W3C//DTD SVG 20010904//EN"
 "http://www.w3.org/TR/2001/REC-SVG-20010904/DTD/svg10.dtd">
<svg version="1.0" xmlns="http://www.w3.org/2000/svg"
 width="225.000000pt" height="225.000000pt" viewBox="0 0 225.000000 225.000000"
 preserveAspectRatio="xMidYMid meet">

<g transform="translate(0.000000,225.000000) scale(0.100000,-0.100000)"
fill="#000000" stroke="none">
<path d="M0 1125 l0 -1125 1125 0 1125 0 0 1125 0 1125 -1125 0 -1125 0 0
-1125z m646 740 c59 -35 88 -96 82 -175 -5 -68 -38 -119 -98 -151 -71 -39
-191 -14 -236 48 -59 81 -55 179 9 249 62 67 158 79 243 29z m996 -471 c93
-37 161 -105 200 -202 22 -55 23 -69 26 -434 l3 -378 -165 0 -166 0 0 313 c0
181 -4 327 -10 349 -6 20 -26 50 -46 67 -29 26 -43 31 -87 31 -69 0 -115 -25
-152 -85 l-30 -48 -3 -314 -3 -313 -165 0 -164 0 0 505 0 505 160 0 160 0 0
-61 0 -61 40 40 c42 44 116 86 177 102 52 13 172 4 225 -16z m-932 -509 l0
-505 -165 0 -165 0 0 505 0 505 165 0 165 0 0 -505z"/>
</g>
</svg>
